<mxfile host="app.diagrams.net" modified="2020-05-14T13:00:42.016Z" agent="5.0 (X11; Linux x86_64) AppleWebKit/537.36 (KHTML, like Gecko) Chrome/81.0.4044.138 Safari/537.36" etag="Eappa5AN0RnoDsJieYR7" version="13.1.1" type="github">
  <diagram id="7dpZataHclQnCBHhR5TN" name="Page-1">
    <mxGraphModel dx="2858" dy="1033" grid="1" gridSize="10" guides="1" tooltips="1" connect="1" arrows="1" fold="1" page="1" pageScale="1" pageWidth="827" pageHeight="1169" math="0" shadow="0">
      <root>
        <mxCell id="0" />
        <mxCell id="1" parent="0" />
        <mxCell id="3l8zGak3sCWa_tVM9Evb-27" value="" style="rounded=1;whiteSpace=wrap;html=1;fillColor=none;gradientColor=none;" vertex="1" parent="1">
          <mxGeometry x="-130" y="970" width="130" height="370" as="geometry" />
        </mxCell>
        <mxCell id="4ES9V2XQbmjqQQAVPZjq-47" value="" style="rounded=1;whiteSpace=wrap;html=1;shadow=1;fillColor=#ffffff;" parent="1" vertex="1">
          <mxGeometry x="110" y="780" width="720" height="840" as="geometry" />
        </mxCell>
        <mxCell id="4ES9V2XQbmjqQQAVPZjq-26" value="" style="rounded=1;whiteSpace=wrap;html=1;shadow=1;fillColor=#ffffff;" parent="1" vertex="1">
          <mxGeometry x="190" y="1102.5" width="260" height="495" as="geometry" />
        </mxCell>
        <mxCell id="4ES9V2XQbmjqQQAVPZjq-25" value="" style="rounded=1;whiteSpace=wrap;html=1;shadow=1;fillColor=#ffffff;" parent="1" vertex="1">
          <mxGeometry x="190" y="800" width="250" height="290" as="geometry" />
        </mxCell>
        <mxCell id="g6cdSrCcOUmQ4DHS_6iD-21" value="" style="dashed=0;outlineConnect=0;html=1;align=center;labelPosition=center;verticalLabelPosition=bottom;verticalAlign=top;shape=mxgraph.weblogos.github" parent="1" vertex="1">
          <mxGeometry x="553" y="660" width="75" height="75" as="geometry" />
        </mxCell>
        <mxCell id="g6cdSrCcOUmQ4DHS_6iD-22" value="Source Code&lt;br&gt;Repository" style="text;html=1;align=center;verticalAlign=middle;resizable=0;points=[];autosize=1;" parent="1" vertex="1">
          <mxGeometry x="545.5" y="735" width="90" height="30" as="geometry" />
        </mxCell>
        <mxCell id="g6cdSrCcOUmQ4DHS_6iD-23" value="" style="endArrow=classic;html=1;dashed=1;" parent="1" target="g6cdSrCcOUmQ4DHS_6iD-21" edge="1">
          <mxGeometry width="50" height="50" relative="1" as="geometry">
            <mxPoint x="758" y="698.5" as="sourcePoint" />
            <mxPoint x="25" y="662.5" as="targetPoint" />
          </mxGeometry>
        </mxCell>
        <mxCell id="g6cdSrCcOUmQ4DHS_6iD-24" value="Push" style="text;html=1;align=center;verticalAlign=middle;resizable=0;points=[];autosize=1;" parent="1" vertex="1">
          <mxGeometry x="708" y="668.5" width="40" height="20" as="geometry" />
        </mxCell>
        <mxCell id="g6cdSrCcOUmQ4DHS_6iD-33" value="" style="endArrow=classic;html=1;dashed=1;entryX=1;entryY=0.5;entryDx=0;entryDy=0;" parent="1" source="g6cdSrCcOUmQ4DHS_6iD-21" target="g6cdSrCcOUmQ4DHS_6iD-34" edge="1">
          <mxGeometry width="50" height="50" relative="1" as="geometry">
            <mxPoint x="31" y="508.5" as="sourcePoint" />
            <mxPoint x="30.910714285714334" y="428.5" as="targetPoint" />
          </mxGeometry>
        </mxCell>
        <mxCell id="g6cdSrCcOUmQ4DHS_6iD-35" style="edgeStyle=orthogonalEdgeStyle;rounded=0;orthogonalLoop=1;jettySize=auto;html=1;dashed=1;exitX=0;exitY=0.5;exitDx=0;exitDy=0;" parent="1" edge="1" source="g6cdSrCcOUmQ4DHS_6iD-34">
          <mxGeometry relative="1" as="geometry">
            <mxPoint x="305" y="780" as="targetPoint" />
            <mxPoint x="490" y="130" as="sourcePoint" />
            <Array as="points">
              <mxPoint x="305" y="698" />
            </Array>
          </mxGeometry>
        </mxCell>
        <mxCell id="g6cdSrCcOUmQ4DHS_6iD-34" value="CI/CD" style="rounded=0;whiteSpace=wrap;html=1;" parent="1" vertex="1">
          <mxGeometry x="343" y="677.5" width="65" height="40" as="geometry" />
        </mxCell>
        <mxCell id="4ES9V2XQbmjqQQAVPZjq-15" value="Create session" style="outlineConnect=0;fontColor=#232F3E;gradientColor=none;strokeColor=#ffffff;fillColor=#232F3E;dashed=0;verticalLabelPosition=middle;verticalAlign=bottom;align=center;html=1;whiteSpace=wrap;fontSize=10;fontStyle=1;spacing=3;shape=mxgraph.aws4.productIcon;prIcon=mxgraph.aws4.lambda;" parent="1" vertex="1">
          <mxGeometry x="338" y="1130" width="80" height="100" as="geometry" />
        </mxCell>
        <mxCell id="4ES9V2XQbmjqQQAVPZjq-16" value="Amazon DynamoDB" style="outlineConnect=0;fontColor=#232F3E;gradientColor=none;strokeColor=#ffffff;fillColor=#232F3E;dashed=0;verticalLabelPosition=middle;verticalAlign=bottom;align=center;html=1;whiteSpace=wrap;fontSize=10;fontStyle=1;spacing=3;shape=mxgraph.aws4.productIcon;prIcon=mxgraph.aws4.dynamodb;" parent="1" vertex="1">
          <mxGeometry x="580" y="1395" width="80" height="110" as="geometry" />
        </mxCell>
        <mxCell id="4ES9V2XQbmjqQQAVPZjq-17" value="Join Session" style="outlineConnect=0;fontColor=#232F3E;gradientColor=none;strokeColor=#ffffff;fillColor=#232F3E;dashed=0;verticalLabelPosition=middle;verticalAlign=bottom;align=center;html=1;whiteSpace=wrap;fontSize=10;fontStyle=1;spacing=3;shape=mxgraph.aws4.productIcon;prIcon=mxgraph.aws4.lambda;" parent="1" vertex="1">
          <mxGeometry x="338" y="1240" width="80" height="100" as="geometry" />
        </mxCell>
        <mxCell id="4ES9V2XQbmjqQQAVPZjq-19" value="Chat" style="rounded=1;whiteSpace=wrap;html=1;rotation=-90;" parent="1" vertex="1">
          <mxGeometry x="120.00000000000001" y="920" width="80" height="40" as="geometry" />
        </mxCell>
        <mxCell id="4ES9V2XQbmjqQQAVPZjq-27" value="Amazon API Gateway" style="outlineConnect=0;fontColor=#232F3E;gradientColor=none;strokeColor=#ffffff;fillColor=#232F3E;dashed=0;verticalLabelPosition=middle;verticalAlign=bottom;align=center;html=1;whiteSpace=wrap;fontSize=10;fontStyle=1;spacing=3;shape=mxgraph.aws4.productIcon;prIcon=mxgraph.aws4.api_gateway;" parent="1" vertex="1">
          <mxGeometry x="206.7" y="1302.5" width="80" height="110" as="geometry" />
        </mxCell>
        <mxCell id="4ES9V2XQbmjqQQAVPZjq-28" value="Search" style="outlineConnect=0;fontColor=#232F3E;gradientColor=none;strokeColor=#ffffff;fillColor=#232F3E;dashed=0;verticalLabelPosition=middle;verticalAlign=bottom;align=center;html=1;whiteSpace=wrap;fontSize=10;fontStyle=1;spacing=3;shape=mxgraph.aws4.productIcon;prIcon=mxgraph.aws4.lambda;" parent="1" vertex="1">
          <mxGeometry x="338" y="1350" width="80" height="100" as="geometry" />
        </mxCell>
        <mxCell id="4ES9V2XQbmjqQQAVPZjq-29" value="Watch next" style="outlineConnect=0;fontColor=#232F3E;gradientColor=none;strokeColor=#ffffff;fillColor=#232F3E;dashed=0;verticalLabelPosition=middle;verticalAlign=bottom;align=center;html=1;whiteSpace=wrap;fontSize=10;fontStyle=1;spacing=3;shape=mxgraph.aws4.productIcon;prIcon=mxgraph.aws4.lambda;" parent="1" vertex="1">
          <mxGeometry x="338" y="1470" width="80" height="100" as="geometry" />
        </mxCell>
        <mxCell id="4ES9V2XQbmjqQQAVPZjq-30" value="REST API" style="rounded=1;whiteSpace=wrap;html=1;rotation=-90;" parent="1" vertex="1">
          <mxGeometry x="110" y="1330" width="80" height="40" as="geometry" />
        </mxCell>
        <mxCell id="4ES9V2XQbmjqQQAVPZjq-34" value="" style="endArrow=classic;html=1;" parent="1" target="4ES9V2XQbmjqQQAVPZjq-16" edge="1" source="4ES9V2XQbmjqQQAVPZjq-50">
          <mxGeometry width="50" height="50" relative="1" as="geometry">
            <mxPoint x="880" y="1425.6" as="sourcePoint" />
            <mxPoint x="1137" y="1110" as="targetPoint" />
          </mxGeometry>
        </mxCell>
        <mxCell id="4ES9V2XQbmjqQQAVPZjq-40" value="" style="shape=image;html=1;verticalAlign=top;verticalLabelPosition=bottom;labelBackgroundColor=#ffffff;imageAspect=0;aspect=fixed;image=https://cdn2.iconfinder.com/data/icons/freecns-cumulus/16/519964-027_Smartphone-128.png" parent="1" vertex="1">
          <mxGeometry x="-109" y="980" width="90" height="90" as="geometry" />
        </mxCell>
        <mxCell id="4ES9V2XQbmjqQQAVPZjq-43" value="" style="shape=image;html=1;verticalAlign=top;verticalLabelPosition=bottom;labelBackgroundColor=#ffffff;imageAspect=0;aspect=fixed;image=https://cdn3.iconfinder.com/data/icons/glypho-free/64/laptop-128.png;shadow=1;fillColor=#000000;" parent="1" vertex="1">
          <mxGeometry x="-124" y="1090" width="120" height="120" as="geometry" />
        </mxCell>
        <mxCell id="4ES9V2XQbmjqQQAVPZjq-45" value="" style="pointerEvents=1;shadow=0;dashed=0;html=1;strokeColor=none;labelPosition=center;verticalLabelPosition=bottom;verticalAlign=top;align=center;fillColor=#000000;shape=mxgraph.mscae.intune.user_group" parent="1" vertex="1">
          <mxGeometry x="-260" y="1130" width="92" height="80" as="geometry" />
        </mxCell>
        <mxCell id="4ES9V2XQbmjqQQAVPZjq-50" value="TedX Scraper" style="outlineConnect=0;fontColor=#232F3E;gradientColor=none;strokeColor=#ffffff;fillColor=#232F3E;dashed=0;verticalLabelPosition=middle;verticalAlign=bottom;align=center;html=1;whiteSpace=wrap;fontSize=10;fontStyle=1;spacing=3;shape=mxgraph.aws4.productIcon;prIcon=mxgraph.aws4.lambda;" parent="1" vertex="1">
          <mxGeometry x="720" y="1400" width="80" height="100" as="geometry" />
        </mxCell>
        <mxCell id="3l8zGak3sCWa_tVM9Evb-1" value="" style="shape=image;html=1;verticalAlign=top;verticalLabelPosition=bottom;labelBackgroundColor=#ffffff;imageAspect=0;aspect=fixed;image=https://cdn1.iconfinder.com/data/icons/system-black-circles/512/chrome_browser-128.png;fillColor=#000000;" vertex="1" parent="1">
          <mxGeometry x="-115.25" y="1220" width="100.5" height="100.5" as="geometry" />
        </mxCell>
        <mxCell id="3l8zGak3sCWa_tVM9Evb-2" value="Amplify" style="outlineConnect=0;fontColor=#232F3E;gradientColor=none;gradientDirection=north;fillColor=#ffbc00;strokeColor=#ffffff;dashed=0;verticalLabelPosition=bottom;verticalAlign=top;align=center;html=1;fontSize=12;fontStyle=0;aspect=fixed;shape=mxgraph.aws4.resourceIcon;resIcon=mxgraph.aws4.amplify;" vertex="1" parent="1">
          <mxGeometry x="206.7" y="890" width="78" height="78" as="geometry" />
        </mxCell>
        <mxCell id="3l8zGak3sCWa_tVM9Evb-6" value="PubSub" style="shape=image;verticalLabelPosition=bottom;labelBackgroundColor=#ffffff;verticalAlign=top;aspect=fixed;imageAspect=0;image=data:image/svg+xml,PHN2ZyB4bWxucz0iaHR0cDovL3d3dy53My5vcmcvMjAwMC9zdmciIHhtbG5zOnhsaW5rPSJodHRwOi8vd3d3LnczLm9yZy8xOTk5L3hsaW5rIiB3aWR0aD0iNzBweCIgaGVpZ2h0PSI3MHB4IiB2aWV3Qm94PSIwIDAgNzAgNzAiIHZlcnNpb249IjEuMSI+JiN4YTsgICAgPCEtLSBHZW5lcmF0b3I6IFNrZXRjaCA2MiAoOTEzOTApIC0gaHR0cHM6Ly9za2V0Y2guY29tIC0tPiYjeGE7ICAgIDx0aXRsZT5JY29ucy9DYXRlZ29yaWVzL0Nsb3VkIExvYWQ8L3RpdGxlPiYjeGE7ICAgIDxkZXNjPkNyZWF0ZWQgd2l0aCBTa2V0Y2guPC9kZXNjPiYjeGE7ICAgIDxnIGlkPSJJY29ucy9DYXRlZ29yaWVzL0Nsb3VkLUxvYWQiIHN0cm9rZT0ibm9uZSIgc3Ryb2tlLXdpZHRoPSIxIiBmaWxsPSJub25lIiBmaWxsLXJ1bGU9ImV2ZW5vZGQiPiYjeGE7ICAgICAgICA8cGF0aCBkPSJNMjkuNDQ0Mjc5MSw4LjMzMzMzMzMzIEMxOS4zMjIxMTcxLDguMzMzMzMzMzMgMTIuMzEyNjM1LDE3LjM2MDMzOTQgMTMuNTcxMzU3NywyNi4wODAyNDY2IEM2Ljk5NTg0MTI5LDI2LjA4MDI0NjYgMS42NjY2NjY2NywzMS41OTU5ODczIDEuNjY2NjY2NjcsMzcuNjU0MzIwNSBDMS42NjY2NjY2Nyw0NC44NjcwNTE5IDcuMzAyODIzNTksNDkuOTk5OTk5MyAxMy41NzEzNTc3LDQ5Ljk5OTk5OTMgTDE3LjM5MDc3OTQsNDkuOTk5OTk5MyBMMjEuNTA3ODE4NCw0My44MjcxNTk5IEMyMi4yOTgzNjEzLDQyLjYzOTU4MjggMjMuNjU2MjE4Myw0Mi4yODM5NTAxIDI0LjY4MjQwMjcsNDIuMjgzOTUwMSBDMjQuNjk3OTAyNiw0MS41MzY0NTc4IDI0LjY2NjkwMjgsNDAuOTc4ODU3NSAyNC43MzIwMDU2LDQwLjIzNDQxMzEgQzI0Ljg0OTgxNDQsMzguODk2MTQxNSAyNS42NDY1MjM5LDM3LjYzNjI2NSAyNi43OTA1NjQ3LDM2Ljg4MjcxNTYgQzMwLjQzMDE0NjIsMzQuNTIyNjg0OCAzNC4yODM2OTQ3LDM0LjU2NzkwMDggMzUuNzkzNjg1OCwzNC41Njc5MDA4IEM0MC4wOTA1NjQ5LDM0LjU2NzkwMDggNDMuNzgyNTI3MSwzNi42Mjk1NTIgNDYuMzg0MDk4OSwzOS41MTA5NTYzIEM0Ni45MzkwMzIxLDQwLjEyNTgzMjggNDcuNDQxMjM1NSw0MC44MDcwMjExIDQ3Ljg5Njk0Nyw0MS41MTIzNDUyIEM0OC4wNDU3NTU3LDQxLjQ4ODIzMjUgNDguMTk0NTY0Myw0MS40NzMxNjMxIDQ4LjM0MzM3Myw0MS40NjQxMTk4IEM1MC4xNjkzOTM4LDQxLjM5MTc4MTkgNTEuOTk1NDE0Nyw0Mi40Mjg2MjYgNTIuODA3NjMyMSw0NC4wMjAwNjEyIEM1My42MTk4NDk1LDQ1LjYxMTQ5NjMgNTMuMzc0OTYyMSw0Ny42NjQxMTk3IDUyLjIxMjM5NzUsNDkuMDM1NDkzMiBMNTEuNDE4NzUxNSw0OS45OTk5OTkzIEw1NC44NDEzNTAyLDQ5Ljk5OTk5OTMgQzYyLjkxMTE0MzQsNDkuOTk5OTk5MyA2OC4zMzMzMzMzLDQ0Ljg1MTkyODQgNjguMzMzMzMzMywzOC40MjU5MjU1IEM2OC4zMzMzMzMzLDMzLjA1MTg1MTUgNjQuNDM5NTQ3LDI3Ljc3MDgzMyA1OC44MDk1ODA1LDI2Ljg1MTg1MTYgQzU4LjgwOTU4MDUsMTcuNTkyNTkyNCA1MC4wNzk0NzM3LDEzLjczNDU2NzggNDMuNzMwMzA1MiwxNi44MjA5ODc1IEM0MS4zNDkzNjcsMTIuMTkxMzU4IDM2LjIyNzg4OTUsOC4zMzMzMzMzMyAyOS40NDQ2NzU5LDguMzMzMzMzMzMgTDI5LjQ0NDI3OTEsOC4zMzMzMzMzMyBaIE0zNi4wNjAxMTU4LDM4LjMzMzMzMjkgQzM0LjU4ODYyOTIsMzguMzMzMzMyOSAzMS43MzAxMjU2LDM4LjMwNDM4NjggMjkuMDAxNjUyMyw0MC4wNDg4NTA2IEMyOC4zMjQ4MTM0LDQwLjQ4NjQxMzEgMjguMTIyMzgwNSw0MS40NzQ1Nzg2IDI4LjU3ODYyNDEsNDIuMTIzNjgyIEMyOS4wMzQ4Njc3LDQyLjc3Mjc4NTUgMzAuMDY1MjcxOSw0Mi45NjY5MjMxIDMwLjc0MjExMDksNDIuNTI5Mzc1NCBDMzIuNjU0ODE5MSw0MS4zMDY1Mzg3IDM0LjU4ODY0NDcsNDEuMzAwNzUyNCAzNi4wNjAxMzEzLDQxLjMwMDc1MjQgQzM4LjA0NTMxOTMsNDEuMzAwNzUyNCA0MC4yMDg4MDYxLDQyLjM2NDI0MzUgNDEuNzQwNzgyNyw0NC4wMzYyNTk5IEM0Mi40OTkyMDU5LDQ0Ljg2NTAzNTIgNDMuMDY3MjMyNCw0NS44MzI5MDQxIDQzLjQzMjg4MDEsNDYuODQxMjc3MSBMNDIuNDQxODMzMiw0Ni4wNzYyOTk0IEM0MS44MTAzMTU0LDQ1LjU4OTQ3MTggNDAuNzczOTQ3Myw0NS43MDI0ODI2IDQwLjI2NjI3OTQsNDYuMzA4MTIyMSBDMzkuNzU4NjExNSw0Ni45MTM3NjE2IDM5Ljg3NjQ4OTcsNDcuOTA3NjYxNCA0MC41MDgwMDc2LDQ4LjM5NDUyNjEgTDQ0LjM3NTY1ODgsNTEuMzYxODU2MyBDNDUuMDA3MTc2Niw1MS44NDg2ODM5IDQ2LjA0NjYzODgsNTEuNzM4NTY2MyA0Ni41NTEyMTI2LDUxLjEzMDAzMzYgTDQ5LjY0NTMzMzYsNDcuNDIwODcwOSBDNTAuMDI5MDc0Miw0Ni45ODMzMDg0IDUwLjExMDY1ODUsNDYuMzIyNTg3OCA0OS44NDQ3NTc0LDQ1LjgwOTY4NDggQzQ5LjU3ODg1NjQsNDUuMjk2NzgxOCA0OC45ODM1ODYyLDQ0Ljk2MDY1NzQgNDguMzg4MzU0Nyw0NC45ODY2OTU3IEM0Ny45MzgxMzY5LDQ1LjAwNjk3NzUgNDcuNTAzMDQ5Myw0NS4yMjQzMTIxIDQ3LjIyODA1OTMsNDUuNTY2MjUyNCBMNDYuNTUxMjIwNCw0Ni40MDA4MTQgQzQ2LjA3NjgyOTcsNDQuNzg2NzM0OCA0NS4xOTc1NDI0LDQzLjMwNTk2MjggNDQuMDYxMzgxMiw0Mi4wNjU2OTMgQzQyLjAyNzg0NzUsMzkuODQ1OTgxNiAzOS4xNDgyMjY1LDM4LjMzMzMzMjkgMzYuMDU5OTg0MywzOC4zMzMzMzI5IEwzNi4wNjAxMTU4LDM4LjMzMzMzMjkgWiBNMjQuNDMzOTg5Miw0OC4zNDMyOTQ5IEMyNC4wMzc0NjksNDguMzkyNDUwNyAyMy42NjUxNjM3LDQ4LjU5NzczNDIgMjMuNDE2OTYyOCw0OC44OTg0MzUzIEwyMC4zMTc0NTM5LDUyLjU5OTM3MTQgQzE5LjgwODk0MDcsNTMuMjAzNjY3NyAxOS45MjY5ODU1LDU0LjE5NTM2MzEgMjAuNTU5NjAzLDU0LjY4MTE0OCBDMjEuMTkyMjIwNSw1NS4xNjY5MzI5IDIyLjIzMDM5MzMsNTUuMDU0MTM1OCAyMi43Mzg5NDUyLDU0LjQ0OTgzOTUgTDIzLjQ0MTE3NzcsNTMuNjE3MTI4OSBDMjMuOTE5NDI0Miw1NS4yMTMxMjA2IDI0Ljc3OTA4MDgsNTYuNjg3NzIxNiAyNS45MTEwOTg5LDU3LjkxOTQ2NzEgQzI3Ljk0ODE3MzcsNjAuMTM3MTQyMSAzMC44MzI4MDkyLDYxLjY2NjY2NTggMzMuOTI2NDI5MSw2MS42NjY2NjU4IEMzNS40MDA0NzgxLDYxLjY2NjY2NTggMzguMjYzOTU5NCw2MS42NzUzNCA0MC45OTcxODM5LDU5LjkzMTgxNDIgQzQxLjY3NTIwMTUsNTkuNDk1MjIyMSA0MS44Nzc5ODY4LDU4LjUwOTI0ODMgNDEuNDIwOTQ4OCw1Ny44NjE1ODQ1IEM0MC45NjM5MTA3LDU3LjIxMzkyMDcgMzkuOTMxNzEyMiw1Ny4wMjAyMTM3IDM5LjI1MzY5NDYsNTcuNDU2NzkwOSBDMzcuMzM3NjU1Nyw1OC42NzY5MTU1IDM1LjQwMDQ2MjYsNTguNzA1ODU2OSAzMy45MjY0MTM2LDU4LjcwNTg1NjkgQzMxLjkzNzc2ODYsNTguNzA1ODU2OSAyOS43NzA1MTQ1LDU3LjYyNDUxNzMgMjguMjM1ODcwMSw1NS45NTMyNDg2IEMyNy40NzYxMjYyLDU1LjEyNjMxMTQgMjYuODg1ODc5LDU0LjE3Nzk4MzUgMjYuNTE2NTcyNSw1My4xNzc1NDY1IEwyNy41MzM1OTg5LDUzLjk0MDgyNzUgQzI4LjE2NjIxNjQsNTQuNDI2NTc1NCAyOS4yMDQzODkyLDU0LjMxMzgxNTMgMjkuNzEyOTQxMSw1My43MDk1MTkgQzMwLjIyMTQ5Myw1My4xMDUyMjI4IDMwLjEwMzQwOTUsNTIuMTEzNTI3MyAyOS40NzA3OTIsNTEuNjI3NzQyNSBMMjUuNTk2NDA1OCw0OC42NjY5OTM1IEMyNS4yNzU1NjAxLDQ4LjQxNTQ0ODMgMjQuODQ1NzQzNSw0OC4yOTY4OTk5IDI0LjQzNDA4OTksNDguMzQzMTYxNiBMMjQuNDMzOTg5Miw0OC4zNDMyOTQ5IFoiIGlkPSJGaWxsLTEiIGZpbGw9IiM3M0RBOEMiLz4mI3hhOyAgICA8L2c+JiN4YTs8L3N2Zz4=;" vertex="1" parent="1">
          <mxGeometry x="333" y="820" width="80" height="80" as="geometry" />
        </mxCell>
        <mxCell id="3l8zGak3sCWa_tVM9Evb-7" value="DataStore" style="shape=image;verticalLabelPosition=bottom;labelBackgroundColor=#ffffff;verticalAlign=top;aspect=fixed;imageAspect=0;image=data:image/svg+xml,PHN2ZyB4bWxucz0iaHR0cDovL3d3dy53My5vcmcvMjAwMC9zdmciIHhtbG5zOnhsaW5rPSJodHRwOi8vd3d3LnczLm9yZy8xOTk5L3hsaW5rIiB3aWR0aD0iNzBweCIgaGVpZ2h0PSI3MHB4IiB2aWV3Qm94PSIwIDAgNzAgNzAiIHZlcnNpb249IjEuMSI+JiN4YTsgICAgPCEtLSBHZW5lcmF0b3I6IFNrZXRjaCA2My4xICg5MjQ1MikgLSBodHRwczovL3NrZXRjaC5jb20gLS0+JiN4YTsgICAgPHRpdGxlPkljb25zL0NhdGVnb3JpZXMvRGF0YVN0b3JlPC90aXRsZT4mI3hhOyAgICA8ZGVzYz5DcmVhdGVkIHdpdGggU2tldGNoLjwvZGVzYz4mI3hhOyAgICA8ZyBpZD0iSWNvbnMvQ2F0ZWdvcmllcy9EYXRhU3RvcmUiIHN0cm9rZT0ibm9uZSIgc3Ryb2tlLXdpZHRoPSIxIiBmaWxsPSJub25lIiBmaWxsLXJ1bGU9ImV2ZW5vZGQiPiYjeGE7ICAgICAgICA8cGF0aCBkPSJNNDAuMzQ2MDc2Myw0NS43NjM0NjA1IEM0MC42ODYyODEsNDUuNzU4Mzc1OCA0MS4wMjgyMzk5LDQ1Ljg4MTc5NTcgNDEuMjkxNjU5LDQ2LjExMTI4NDkgTDQxLjI5MTY1OSw0Ni4xMTEyODQ5IEw0NC45Mjg5Mzk2LDQ5LjE5OTY5NSBDNDUuNTIyNTc5OSw0OS43MDYyNjMzIDQ1LjYzMzYyMyw1MC43NDA5MDM2IDQ1LjE1NTk2MTIsNTEuMzcxMjA1OCBDNDQuNjc4NjUxOCw1Mi4wMDE1MDc5IDQzLjcwNDI5MjEsNTIuMTE4ODk2NCA0My4xMTAyOTkzLDUxLjYxMjMyODEgTDQzLjExMDI5OTMsNTEuNjEyMzI4MSBMNDIuMTU1NjgwNiw1MC44MTU5ODk5IEM0Mi41MDIyMDU4LDUxLjg1OTQ0MzIgNDMuMDU2MzY0LDUyLjg0ODYwODYgNDMuNzY5NTA3OSw1My43MTEyMjAxIEM0NS4yMTAyNDg5LDU1LjQ1NDc3NDEgNDcuMjQ0NjMwMiw1Ni41ODI0NzkxIDQ5LjExMTU2NTUsNTYuNTgyNDc5MSBDNTAuNDk1MTk4Niw1Ni41ODI0NzkxIDUyLjMxMzgzODgsNTYuNTUyMTYyNiA1NC4xMTIzODU2LDU1LjI3OTU3MjcgQzU0Ljc0OTAzMzEsNTQuODI0MTE5NCA1NS43MTc3NTI1LDU1LjAyNjQ2NDcgNTYuMTQ2NzY2OSw1NS43MDE4ODkyIEM1Ni41NzYxMzM4LDU2LjM3NzMxMzcgNTYuMzg1Nzc0MSw1Ny40MDU5NjEyIDU1Ljc0OTEyNjYsNTcuODYxNDE0NCBDNTMuMzYwNDQwNCw1OS41NTQzMDMgNTAuODY1NDE1NCw1OS42NjM0MTU0IDQ5LjQxNTk4MjIsNTkuNjcwNDEzNSBMNDkuMTExNTY1NSw1OS42NzA4OSBDNDYuMjA3NTIyMyw1OS42NzA4OSA0My40OTk0NzkxLDU4LjA3NTM5MjggNDEuNTg3MDY5MSw1NS43NjIxNjk4IEM0MC41MjQ1Nzk5LDU0LjQ3NzU5NDIgMzkuNzE3NjY2Miw1Mi45MzkyMDU4IDM5LjI2ODU1ODMsNTEuMjc0NjE1OCBMMzkuMjY4NTU4Myw1MS4yNzQ2MTU4IEwzOC42MDkzNDk2LDUyLjE0MzIyMDEgQzM4LjEzMTY4NzgsNTIuNzczNTIyMyAzNy4xNTczMjgxLDUyLjg5MTI2MzMgMzYuNTYzMzM1Myw1Mi4zODQ2OTUgQzM1Ljk2OTY5NSw1MS44Nzc3NzQxIDM1Ljg1ODY1MTgsNTAuODQzNDg2MyAzNi4zMzU5NjEyLDUwLjIxMzE4NDIgTDM2LjMzNTk2MTIsNTAuMjEzMTg0MiBMMzkuMjQ1NjQ0Niw0Ni4zNTI3NTk3IEMzOS40Nzg2NTksNDYuMDM5MzcxMiAzOS44MjgzNTY4LDQ1LjgyNTA0MDMgNDAuMjAwNjE1OCw0NS43NzM5MjUyIEw0MC4yMDA2MTU4LDQ1Ljc3MzkyNTIgWiBNMTIuNDI4NDAyOSw0Mi4yOTE1NDEgQzE1LjYzODQzMTcsNDMuOTQzMDg3OCAyMy45MDYzODg1LDQ1LjExOTA4NzggMzMuNTk5MjIzLDQ1LjExOTA4NzggQzMzLjgyNzY1NDcsNDUuMTE5MDg3OCAzNC4wNTQ2NzYzLDQ1LjExNzY3NzcgMzQuMjgxNjk3OCw0NS4xMTYyNjc2IEMzMy44Mzk5OTI4LDQ2LjU4OTQ0MDMgMzMuNTk5MjIzLDQ4LjE0OTY4NDkgMzMuNTk5MjIzLDQ5Ljc2NjY4NDkgQzMzLjU5OTIyMyw1Mi4wNDk5NDM5IDM0LjA3NTQ3NDgsNTQuMjIxMTAyMiAzNC45MjkyNzM0LDU2LjE5MDYyMDEgQzM0LjQ4ODk3ODQsNTYuMTk1NTU1NCAzNC4wNDYyMTU4LDU2LjE5ODcyODEgMzMuNTk5MjIzLDU2LjE5ODcyODEgQzIxLjExODY3NjMsNTYuMTk4NzI4MSAxMSw1NC4yNDc4OTM1IDExLDUxLjg0MzAxNTggTDExLDUxLjg0MzAxNTggTDExLDQzLjgxNzU5MTQgQzExLDQzLjI3OTY0ODkgMTEuNTA2OTIwOSw0Mi43NjYwMzAyIDEyLjQyODQwMjksNDIuMjkxNTQxIFogTTUxLjExNDQ2NjksMzcuNDE5MTA3OSBDNTQuMDEzNTc0OCwzNy40MTkxMDc5IDU2LjcxNjY4MjcsMzguOTk2NjI1OSA1OC42MjU5MjAxLDQxLjMxMTk2NCBDNTkuNjkyMjg3MSw0Mi42MDU3MDUgNjAuNTE3ODg0Miw0NC4xNTA0Mzg4IDYwLjk2Mjc2MTksNDUuODMzNzEyMiBMNjAuOTYyNzYxOSw0NS44MzM3MTIyIEw2MS41OTgzNTE4LDQ0Ljk2MzM0NTMgQzYxLjg1Njc0NzUsNDQuNjA2NTk3MSA2Mi4yNjQ5NjMzLDQ0LjM3OTkyODEgNjIuNjg3NjMyNCw0NC4zNTg3NzcgQzYzLjI0NjM3MzQsNDQuMzMxNjMzMSA2My44MDUxMTQ0LDQ0LjY4MjAzNiA2NC4wNTQ2OTcxLDQ1LjIxNzE1ODMgQzY0LjMwNDI3OTksNDUuNzUyMjgwNiA2NC4yMjc3ODM1LDQ2LjQ0MTQ1MzIgNjMuODY3NTEwMSw0Ni44OTc5NjQgTDYzLjg2NzUxMDEsNDYuODk3OTY0IEw2MC45NjI3NjE5LDUwLjc2NjQ5NjQgQzYwLjQ4OTMzMDIsNTEuNDAxMzgxMyA1OS41MTM1NjA0LDUxLjUxNjMwMjIgNTguOTIwOTc3Nyw1MS4wMDgzMjM3IEw1OC45MjA5Nzc3LDUxLjAwODMyMzcgTDU1LjI5MDA0MjQsNDcuOTEzMjE1OCBDNTQuNjk3MTA3Miw0Ny40MDU1ODk5IDU0LjU4NjQxNjUsNDYuMzY4ODM0NSA1NS4wNjMwMjA5LDQ1LjczNzEyMjMgQzU1LjUzOTYyNTIsNDUuMTA1NDEwMSA1Ni41MTIyMjIzLDQ0Ljk4NzY2OTEgNTcuMTA1MTU3Niw0NS40OTUyOTUgTDU3LjEwNTE1NzYsNDUuNDk1Mjk1IEw1OC4wMzU4MDUsNDYuMjkzMzk1NyBDNTcuNjkyNDUyNSw0NS4yNDE0ODIgNTcuMTU5MDkyOCw0NC4yMzE4NzA1IDU2LjQ0NzAwNjUsNDMuMzY3NDk2NCBDNTUuMDA5MDg1Niw0MS42MjM1ODk5IDUyLjk3ODIyOTUsNDAuNTE0MjE1OCA1MS4xMTQ0NjY5LDQwLjUxNDIxNTggQzQ5LjczMzMwMTQsNDAuNTE0MjE1OCA0Ny45MTc4MzM4LDQwLjUyMDIwODYgNDYuMTIyMTA3Miw0MS43OTU2MTg3IEM0NS40ODY4Njk4LDQyLjI1MjEyOTUgNDQuNTE5NTYwNCw0Mi4wNDk0MzE3IDQ0LjA5MTI1MTEsNDEuMzcyNTk3MSBDNDMuNjYyOTQxNyw0MC42OTU0MTAxIDQzLjg1Mjk0ODksMzkuNjY1IDQ0LjQ4ODUzODgsMzkuMjA4NDg5MiBDNDYuODY2NjI1MiwzNy41MTg4NzA1IDQ5LjM1MDQ2NjksMzcuNDI0MDQzMiA1MC43OTg5NjMzLDM3LjQxOTEwNzkgTDUwLjc5ODk2MzMsMzcuNDE5MTA3OSBaIE01NC43NzA1MDE0LDI4LjM4NDAzNjcgQzU1LjY5Mzc0NiwyOC44NTg1MjU5IDU2LjE5ODkwNDMsMjkuMzc0MjU5NyA1Ni4xOTg5MDQzLDI5LjkxMDQzOTYgTDU2LjE5ODkwNDMsMjkuOTEwNDM5NiBMNTYuMTk4OTA0MywzNC45MzI3NjMzIEM1NC4yMjcyNzEyLDM0LjA3NjQ5NzEgNTIuMDUzMjkyOCwzMy41OTkxODc4IDQ5Ljc2Njg2MTIsMzMuNTk5MTg3OCBDNDMuNTQxNzQ2LDMzLjU5OTE4NzggMzguMTQyMjI4MSwzNy4xMTk0MzI0IDM1LjQ0MDUzMDIsNDIuMjc1NzEyOSBDMzQuODMyNDM2Nyw0Mi4yODUyMzA5IDM0LjIxOTc2MDQsNDIuMjkxMjIzNyAzMy41OTkzMjg4LDQyLjI5MTIyMzcgQzIxLjExODc4Miw0Mi4yOTEyMjM3IDExLjAwMDEwNTgsNDAuMzQwMzg5MiAxMS4wMDAxMDU4LDM3LjkzNTg2NCBMMTEuMDAwMTA1OCwzNy45MzU4NjQgTDExLjAwMDEwNTgsMjkuOTEwNDM5NiBDMTEuMDAwMTA1OCwyOS4zNzI0OTcxIDExLjUwNjY3NDEsMjguODU4NTI1OSAxMi40Mjg1MDg2LDI4LjM4NDAzNjcgQzE1LjYzODE4NDksMzAuMDM1OTM2IDIzLjkwNjg0NjgsMzEuMjEzMzQ2IDMzLjU5OTY4MTMsMzEuMjEzMzQ2IEM0My4yOTIxNjMzLDMxLjIxMzM0NiA1MS41NjA0NzI3LDMwLjAzNzM0NiA1NC43NzA1MDE0LDI4LjM4NDAzNjcgWiBNMzQuMDM4OTA4MSwxMS4wMDA4Mzg4IEM0Ni4zMTY5ODQ2LDExLjA0Nzc0MjMgNTYuMTk4OTc0OCwxMy4wNTU2NjA5IDU2LjE5ODk3NDgsMTUuNTI0MjE1OCBMNTYuMTk4OTc0OCwxNS41MjQyMTU4IEw1Ni4xOTg5NzQ4LDIzLjg1OTg1NjEgQzU2LjE5ODk3NDgsMjYuMzU5MjA4NiA0Ni4wODAyOTg2LDI4LjM4NDA3MTkgMzMuNTk5Mzk5MywyOC4zODQwNzE5IEMyMS4xMTg4NTI1LDI4LjM4NDA3MTkgMTEuMDAwMTc2MywyNi4zNTk1NjEyIDExLjAwMDE3NjMsMjMuODU5ODU2MSBMMTEuMDAwMTc2MywyMy44NTk4NTYxIEwxMS4wMDAxNzYzLDE1LjUyNDIxNTggQzExLjAwMDE3NjMsMTMuMDI2MjczNCAyMS4xMTg4NTI1LDExIDMzLjU5OTM5OTMsMTEgWiIgaWQ9IkZpbGwtMTEiIGZpbGw9IiNBRThEOEQiLz4mI3hhOyAgICA8L2c+JiN4YTs8L3N2Zz4=;" vertex="1" parent="1">
          <mxGeometry x="338" y="967.5" width="70" height="70" as="geometry" />
        </mxCell>
        <mxCell id="3l8zGak3sCWa_tVM9Evb-9" value="" style="shape=image;verticalLabelPosition=bottom;labelBackgroundColor=#ffffff;verticalAlign=top;aspect=fixed;imageAspect=0;image=data:image/svg+xml,PHN2ZyB4bWxuczpkYz0iaHR0cDovL3B1cmwub3JnL2RjL2VsZW1lbnRzLzEuMS8iIHhtbG5zOmNjPSJodHRwOi8vY3JlYXRpdmVjb21tb25zLm9yZy9ucyMiIHhtbG5zOnJkZj0iaHR0cDovL3d3dy53My5vcmcvMTk5OS8wMi8yMi1yZGYtc3ludGF4LW5zIyIgeG1sbnM6c3ZnPSJodHRwOi8vd3d3LnczLm9yZy8yMDAwL3N2ZyIgeG1sbnM9Imh0dHA6Ly93d3cudzMub3JnLzIwMDAvc3ZnIiB2aWV3Qm94PSIwIDAgNTgwIDIxNy41IiBoZWlnaHQ9IjIxNy41IiB3aWR0aD0iNTgwIiB4bWw6c3BhY2U9InByZXNlcnZlIiB2ZXJzaW9uPSIxLjEiIGlkPSJzdmcyIj48bWV0YWRhdGEgaWQ9Im1ldGFkYXRhOCI+PHJkZjpSREY+PGNjOldvcmsgcmRmOmFib3V0PSIiPjxkYzpmb3JtYXQ+aW1hZ2Uvc3ZnK3htbDwvZGM6Zm9ybWF0PjxkYzp0eXBlIHJkZjpyZXNvdXJjZT0iaHR0cDovL3B1cmwub3JnL2RjL2RjbWl0eXBlL1N0aWxsSW1hZ2UiLz48L2NjOldvcms+PC9yZGY6UkRGPjwvbWV0YWRhdGE+PGRlZnMgaWQ9ImRlZnM2Ii8+PGcgdHJhbnNmb3JtPSJtYXRyaXgoMS4yNSwwLDAsLTEuMjUsMCwyMTcuNSkiIGlkPSJnMTAiPjxnIHRyYW5zZm9ybT0ic2NhbGUoMC4xLDAuMSkiIGlkPSJnMTIiPjxwYXRoIGlkPSJwYXRoMTQiIHN0eWxlPSJmaWxsOiNmNjhkMTE7ZmlsbC1vcGFjaXR5OjE7ZmlsbC1ydWxlOm5vbnplcm87c3Ryb2tlOm5vbmUiIGQ9Im0gMTI4OS42NywxMTQwIC0yNjkuNjcsOTAgMCwzOTAgMjcwLC04MCAtMC4zMywtNDAwIi8+PHBhdGggaWQ9InBhdGgxNiIgc3R5bGU9ImZpbGw6I2Y2OGQxMTtmaWxsLW9wYWNpdHk6MTtmaWxsLXJ1bGU6bm9uemVybztzdHJva2U6bm9uZSIgZD0ibSAxMzYwLDE1NDAgMjcwLDgwIC0wLjk0LC0zODkuNzMgTCAxMzYwLDExNDAgbCAwLDQwMCIvPjxwYXRoIGlkPSJwYXRoMTgiIHN0eWxlPSJmaWxsOiNmNjhkMTE7ZmlsbC1vcGFjaXR5OjE7ZmlsbC1ydWxlOm5vbnplcm87c3Ryb2tlOm5vbmUiIGQ9Ik0gMTU3NSwxNjYyLjIzIDEzMjMuMzYsMTc0MCAxMDc1LDE2NjIuMjMgbCAyNDguNzIsLTY2LjY3IDI1MS4yOCw2Ni42NyIvPjxwYXRoIGlkPSJwYXRoMjAiIHN0eWxlPSJmaWxsOiNmNjhkMTE7ZmlsbC1vcGFjaXR5OjE7ZmlsbC1ydWxlOm5vbnplcm87c3Ryb2tlOm5vbmUiIGQ9Im0gMTk2OS42NywxMTQwIC0yNjkuNjcsOTAgMCwzOTAgMjcwLC04MCAtMC4zMywtNDAwIi8+PHBhdGggaWQ9InBhdGgyMiIgc3R5bGU9ImZpbGw6I2Y2OGQxMTtmaWxsLW9wYWNpdHk6MTtmaWxsLXJ1bGU6bm9uemVybztzdHJva2U6bm9uZSIgZD0ibSAyMDQwLDE1NDAgMjcwLDgwIC0wLjk0LC0zODkuNzMgTCAyMDQwLDExNDAgbCAwLDQwMCIvPjxwYXRoIGlkPSJwYXRoMjQiIHN0eWxlPSJmaWxsOiNmNjhkMTE7ZmlsbC1vcGFjaXR5OjE7ZmlsbC1ydWxlOm5vbnplcm87c3Ryb2tlOm5vbmUiIGQ9Ik0gMjI1NSwxNjYyLjIzIDIwMDMuMzYsMTc0MCAxNzU1LDE2NjIuMjMgbCAyNDguNzIsLTY2LjY3IDI1MS4yOCw2Ni42NyIvPjxwYXRoIGlkPSJwYXRoMjYiIHN0eWxlPSJmaWxsOiNmNjhkMTE7ZmlsbC1vcGFjaXR5OjE7ZmlsbC1ydWxlOm5vbnplcm87c3Ryb2tlOm5vbmUiIGQ9Ik0gMjcwLDk3MCAwLDEwNTAgMCw2NjAgMjY5LjY3Miw1NzAgMjcwLDk3MCIvPjxwYXRoIGlkPSJwYXRoMjgiIHN0eWxlPSJmaWxsOiNmNjhkMTE7ZmlsbC1vcGFjaXR5OjE7ZmlsbC1ydWxlOm5vbnplcm87c3Ryb2tlOm5vbmUiIGQ9Ik0gMzQwLDk3MCA2MTAsMTA1MCA2MDkuMDYzLDY2MC4yNjIgMzQwLDU3MCBsIDAsNDAwIi8+PHBhdGggaWQ9InBhdGgzMCIgc3R5bGU9ImZpbGw6I2Y2OGQxMTtmaWxsLW9wYWNpdHk6MTtmaWxsLXJ1bGU6bm9uemVybztzdHJva2U6bm9uZSIgZD0iTSA1NTUsMTA5Mi4yMyAzMDMuMzU5LDExNzAgNTUsMTA5Mi4yMyAzMDMuNzIzLDEwMjUuNTYgNTU1LDEwOTIuMjMiLz48cGF0aCBpZD0icGF0aDMyIiBzdHlsZT0iZmlsbDojZjY4ZDExO2ZpbGwtb3BhY2l0eToxO2ZpbGwtcnVsZTpub256ZXJvO3N0cm9rZTpub25lIiBkPSJNIDk0OS42NzIsNTcwIDY4MCw2NjAgbCAwLDM5MCAyNzAsLTgwIC0wLjMyOCwtNDAwIi8+PHBhdGggaWQ9InBhdGgzNCIgc3R5bGU9ImZpbGw6I2Y2OGQxMTtmaWxsLW9wYWNpdHk6MTtmaWxsLXJ1bGU6bm9uemVybztzdHJva2U6bm9uZSIgZD0ibSAxMDIwLDk3MCAyNzAsODAgLTAuOTQsLTM4OS43MzggTCAxMDIwLDU3MCBsIDAsNDAwIi8+PHBhdGggaWQ9InBhdGgzNiIgc3R5bGU9ImZpbGw6I2Y2OGQxMTtmaWxsLW9wYWNpdHk6MTtmaWxsLXJ1bGU6bm9uemVybztzdHJva2U6bm9uZSIgZD0iTSAxMjM1LDEwOTIuMjMgOTgzLjM1OSwxMTcwIDczNSwxMDkyLjIzIDk4My43MjMsMTAyNS41NiAxMjM1LDEwOTIuMjMiLz48cGF0aCBpZD0icGF0aDM4IiBzdHlsZT0iZmlsbDojZjY4ZDExO2ZpbGwtb3BhY2l0eToxO2ZpbGwtcnVsZTpub256ZXJvO3N0cm9rZTpub25lIiBkPSJNIDYwOS42NzIsMCAzNDAsOTAgMzQwLDQ4MCA2MTAsNDAwIDYwOS42NzIsMCIvPjxwYXRoIGlkPSJwYXRoNDAiIHN0eWxlPSJmaWxsOiNmNjhkMTE7ZmlsbC1vcGFjaXR5OjE7ZmlsbC1ydWxlOm5vbnplcm87c3Ryb2tlOm5vbmUiIGQ9Ik0gNjgwLDQwMCA5NTAsNDgwIDk0OS4wNjMsOTAuMjYxNyA2ODAsMCBsIDAsNDAwIi8+PHBhdGggaWQ9InBhdGg0MiIgc3R5bGU9ImZpbGw6I2Y2OGQxMTtmaWxsLW9wYWNpdHk6MTtmaWxsLXJ1bGU6bm9uemVybztzdHJva2U6bm9uZSIgZD0iTSA4OTUsNTIyLjIzIDY0My4zNTksNjAwIDM5NSw1MjIuMjMgNjQzLjcyMyw0NTUuNTU5IDg5NSw1MjIuMjMiLz48cGF0aCBpZD0icGF0aDQ0IiBzdHlsZT0iZmlsbDojMTAwZjBkO2ZpbGwtb3BhY2l0eToxO2ZpbGwtcnVsZTpub256ZXJvO3N0cm9rZTpub25lIiBkPSJtIDE4MDMuOSwzNDQuNzUgLTE5Ljg0LC0wLjA3IGMgLTcuMjgsMCAtMTYuNTYsLTQuOTE4IC0xOC44NCwtMTIuODkxIGwgLTYwLjE5LC0yMTIuMDUxIC01OS41MywyMTEuNTkgYyAtMS43OSw2LjYzMyAtOC4wNCwxMy4zNTIgLTE2LjU0LDEzLjM1MiBsIC0yMy40OSwwIGMgLTguNDYsMCAtMTQuNjMsLTYuODA5IC0xNi4zNCwtMTMuNDg5IGwgLTU1LjM4LC0yMDkuMzkgLTU3LjIyLDIxMC4wMzkgYyAtMi4yNiw3LjY4IC0xMS43NywxMi44NCAtMTkuMjMsMTIuODQgbCAtMjguNTUsMC4wNSBjIC02LjEsMCAtMTEuNzcsLTIuNjIxIC0xNC44MSwtNi44MzkgLTIuMDYsLTIuODYgLTIuNjMsLTYuMTAyIC0xLjY4LC04LjkyMiBsIDg4LjQsLTMxMi45NTczIGMgMS45NSwtNi41ODIwMSA3LjY1LC0xMy4yMTA5MiAxNS45OSwtMTMuMjEwOTIgbCAyOC4zOSwwIGMgNy42NywwIDE0LjM5LDUuNTg5ODUgMTYuMzMsMTMuNTE5NTIgbCA1NC40MSwyMDguNDY4NyA1OS4yMSwtMjA4LjcwNyBjIDEuNzgsLTYuMzkwNTkgNy41MSwtMTMuMjgxMjIgMTUuODksLTEzLjI4MTIyIGwgMjcuOTMsMCBjIDcuNzcsMCAxNC4zMSw1LjM5ODQ0IDE2LjIzLDEzLjMwODYyIGwgODUuMDksMzEyLjczMDYgYyAxLDMuMDEyIDAuNDIsNi4zNTkgLTEuNjEsOS4xOCAtMi45OSw0LjE1MiAtOC41OSw2LjczIC0xNC42Miw2LjczIi8+PHBhdGggaWQ9InBhdGg0NiIgc3R5bGU9ImZpbGw6IzEwMGYwZDtmaWxsLW9wYWNpdHk6MTtmaWxsLXJ1bGU6bm9uemVybztzdHJva2U6bm9uZSIgZD0ibSAyMDQ5LjM4LDIxMS44NzkgLTE0OS45OCwwIGMgMy40NSw0Mi4wOSAzMC43OCw4NS43MyA3Ny4wOCw4Ny40MSA0OS4yNywtMS42MDkgNzEuODEsLTQ0LjI1IDcyLjksLTg3LjQxIHogbSAtNzMuMDEsMTM1LjEwOSBjIC0xMDEuMzEsMCAtMTQ3LjQ1LC04OS41NjYgLTE0Ny40NSwtMTcyLjc3NyAwLC0xMDMuODUxNiA1Ny4zNiwtMTcwLjk0OTI4IDE0Ni4xMywtMTcwLjk0OTI4IDYzLjUzLDAgMTExLjk2LDMyLjA5NzY4IDEzMi44OCw4OC4xNzk2OCAxLjEyLDMuMjA3IDAuNzcsNi42ODc1IC0wLjk4LDkuODA4NiAtMi4xMywzLjc4OSAtNi4xNyw2LjY0OCAtMTAuOTUsNy42OTkgbCAtMjguMTIsNS4zNzkgYyAtNy41NSwxLjE4NCAtMTYuMiwtMy4yODkgLTE5LjA2LC05Ljc3NyAtMTMuNjYsLTMxLjE2MDQgLTM4LjU2LC00OC44NDAxIC02OS44MSwtNDkuNzYxOSAtMzAuMDcsMC45Mjk3IC01Ny42OCwxOC43OTI5IC03MC4zMyw0NS40ODA5IC0xMC4yOCwyMS44IC0xMS44LDQzLjI4OSAtMTEuOTcsNjUuMTQgbCAyMDMuNjEsMC4wNyBjIDQuMjcsMCA4LjY5LDEuODc5IDExLjgxLDUuMDQgMi42MSwyLjYyMSA0LjAzLDUuODc4IDQsOS4xNCAtMC41LDgwLjg5OSAtMzcuNDcsMTY3LjMyOCAtMTM5Ljc2LDE2Ny4zMjgiLz48cGF0aCBpZD0icGF0aDQ4IiBzdHlsZT0iZmlsbDojMTAwZjBkO2ZpbGwtb3BhY2l0eToxO2ZpbGwtcnVsZTpub256ZXJvO3N0cm9rZTpub25lIiBkPSJtIDIzNjYuNjIsMTczLjcxMSBjIDAsLTE5LjE2IC0zLjQ3LC0xMTQuODMyMSAtNzEuNDQsLTExNy4yODEzIC0yMi43OCwwLjg3MTEgLTQ1LjgsMTQuMjYxNyAtNTguNjYsMzQuMDU4NiAtOS40NywxNC45NzI3IC0xNSwzNS42NzE3IC0xNi40Miw2MS4yODE3IGwgMCw1Ni4yODkgYyAxLjExLDQzLjEyMSAzMS40Niw5MC40NDEgNzQuODYsOTIuMjczIDY4LjIsLTIuNjkxIDcxLjY2LC0xMDUuOTQxIDcxLjY2LC0xMjYuNjIxIHogbSAtNjAuNzgsMTc2LjE4IC01LjM5LDAgYyAtMzMuNjMsMCAtNjAuMDYsLTEzLjk2OSAtODAuMzUsLTQyLjYwMiBsIC0wLjAzLDEzMS45MyBjIDAsNy40MSAtNy42NSwxNC4xNiAtMTYuMSwxNC4xNiBsIC0yOS4yOCwwIGMgLTcuNjUsMCAtMTYuMjEsLTYuMDU5IC0xNi4yMywtMTQuMTYgbCAwLC00MTEuODQwMSBjIDAuMDMsLTcuNDgwNSA3LjY4LC0xNC4yNzczIDE2LjEyLC0xNC4yNzczIGwgOC42LDAuMDQ2OCBjIDguMTIsMCAxMy45LDYuNTQzIDE1Ljg1LDEyLjYyMTEgbCA5LjE2LDI5LjA3MDMgYyAyMS4yOCwtMzAuMjE4NyA1My4zMywtNDcuOTY4NzEgODcuNjMsLTQ3Ljk2ODcxIGwgNS4yNSwwIGMgOTAuMzUsMCAxMzAuNzksODcuODc4OTEgMTMwLjc5LDE3NC45Njg5MSAwLDQzLjM1MSAtMTAuNjksODQuODAxIC0yOS4zMiwxMTMuNzE5IC0yMS41MywzMy41MTEgLTU4LjU5LDU0LjMzMiAtOTYuNyw1NC4zMzIiLz48cGF0aCBpZD0icGF0aDUwIiBzdHlsZT0iZmlsbDojMTAwZjBkO2ZpbGwtb3BhY2l0eToxO2ZpbGwtcnVsZTpub256ZXJvO3N0cm9rZTpub25lIiBkPSJtIDI3NTIuNDcsMTgyLjk4IGMgLTE5LjA0LDEzLjY4IC00MS45MywxOC4yNSAtNjQuODYsMjIuODI5IGwgLTQzLjk3LDguMTUyIGMgLTMxLjU1LDUuMTg3IC00OS44MSwxMy42NDggLTQ5LjgxLDQxLjQ4OCAwLDI5LjQzIDMwLjUsNDAuNjggNTYuMzYsNDEuMzc5IDMxLjU4LC0wLjc5NyA1NS4zMywtMTQuODg3IDY2Ljg2LC0zOS42NjggMi43NCwtNS44NCA4LjgxLC05Ljc2OSAxNS4xMiwtOS43NjkgMS4wOCwwIDIuMTgsMC4xMjEgMy4yMiwwLjM0NyBsIDI3LjQ0LDYuMDYzIGMgNC40OCwwLjk4OCA4LjY2LDQuMDU4IDEwLjksOC4wNTEgMS43OSwzLjE2OCAyLjE4LDYuNjI4IDEuMTEsOS43MTggLTE2Ljc5LDQ4LjkxIC01OS40Miw3NC43NTggLTEyMy45MSw3NC43NTggLTU4LjI3LC0wLjEyOSAtMTIwLjU0LC0yNi4wMzkgLTEyMC41NCwtOTguNDA2IDAsLTQ5LjQ2MSAzMS4wOCwtODAuODcxIDkyLjQ0LC05My4zNzEgbCA0OS4yMiwtOS4zNzkgYyAyNy4wMiwtNS4xNzIgNTQuNjUsLTE0LjM3MSA1NC42NSwtNDMuMzgzIDAsLTQyLjk0OTIgLTQ5Ljk4LC00Ny4zMjgxIC02NS4wOSwtNDcuNjQwNiAtMzMuOSwwLjczMDUgLTcyLjI4LDE1Ljg1MTYgLTgxLjYsNDcuODcxNiAtMS44Nyw3LjAzOSAtMTAuNzMsMTIuMDE5IC0xOC41LDEwLjQwMiBsIC0yOC43LC01LjkyMiBjIC00LjMyLC0wLjkxIC04LjI3LC0zLjcxOSAtMTAuNTcsLTcuNTExNyAtMS45MywtMy4xNjAyIC0yLjQ4LC02LjY5OTIgLTEuNTksLTkuOTI5NyAxNC44MSwtNTMuMTI4OSA2Ni4xLC04NS4xNjc5NyAxMzcuMiwtODUuNzA3MDQgbCAxLjU4LC0wLjAxMTcyIGMgNjMuNSwwIDEzMS4zNSwyNy4xOTE0NiAxMzEuMzUsMTAzLjQ2OTE2IDAsMzEuMDUgLTEzLjk3LDU4LjgxMiAtMzguMzEsNzYuMTcxIi8+PHBhdGggaWQ9InBhdGg1MiIgc3R5bGU9ImZpbGw6IzEwMGYwZDtmaWxsLW9wYWNpdHk6MTtmaWxsLXJ1bGU6bm9uemVybztzdHJva2U6bm9uZSIgZD0ibSAzMDQyLjc1LDIxMS41NyAtMTUwLjAyLDAgYyAzLjQzLDQyLjEyOSAzMC43Niw4NS43ODkgNzcuMDYsODcuMzkxIDQ5LjI1LC0xLjU2MyA3MS44MiwtNDQuMTk5IDcyLjk2LC04Ny4zOTEgeiBtIC03My4wNCwxMzUuMTI5IGMgLTEwMS4zMywwIC0xNDcuNDgsLTg5LjU3IC0xNDcuNDgsLTE3Mi43NzcgMCwtMTAzLjg0MzkgNTcuMzcsLTE3MC45MzM3MiAxNDYuMTUsLTE3MC45MzM3MiA2My41NCwwIDExMS45NywzMi4xMDE1MiAxMzIuOTEsODguMTcxOTIgMS4xMSwzLjIxMDkgMC43Niw2LjY5OTIgLTEsOS44Mjc4IC0yLjEzLDMuNzkzIC02LjE4LDYuNjUzIC0xMC45NSw3LjY4NCBsIC0yOC4xNiw1LjM3OSBjIC02LjU5LDEuMDcgLTE1Ljc4LC0yLjM0IC0xOS4wMiwtOS43ODkgLTEzLjY3LC0zMS4xNDA5IC0zOC41OCwtNDguODIwNiAtNjkuOCwtNDkuNzgxNSAtMzAuMSwwLjk2MDkgLTU3LjcsMTguODIwMyAtNzAuMyw0NS41IC0xMC4zLDIxLjc0OTUgLTExLjgzLDQzLjI1NzUgLTExLjk4LDY1LjE2MDUgbCAyMDMuNTksMC4wNSBjIDQuMjQsMCA4LjYzLDEuODY4IDExLjc1LDUuMDA4IDIuNjIsMi42MzMgNC4wNCw1Ljg5MSA0LjAxLDkuMTcyIC0wLjQ3LDgwLjg5MSAtMzcuNDEsMTY3LjMyOCAtMTM5LjcyLDE2Ny4zMjgiLz48cGF0aCBpZD0icGF0aDU0IiBzdHlsZT0iZmlsbDojMTAwZjBkO2ZpbGwtb3BhY2l0eToxO2ZpbGwtcnVsZTpub256ZXJvO3N0cm9rZTpub25lIiBkPSJtIDMzMDEuNjksMzQyLjg5MSBjIC0zLjk3LDAuNDM3IC03Ljc5LDAuNjQ4IC0xMS41LDAuNjQ4IC0zNC4xNywwIC02MS45MiwtMTguNTc4IC04MS4xOCwtNTQuMDcgbCAwLjA3LDMxLjA4MiBjIC0wLjAzLDcuNTI3IC03LjU0LDE0LjE0IC0xNi4wNywxNC4xNCBsIC0yNS40MywwIGMgLTguMzQsMCAtMTUuNywtNi42NCAtMTUuNzYsLTE0LjI2MSBMIDMxNTEuNzgsMTguNSBjIDAsLTcuNTc4MSA3LjM2LC0xNC4yMzA0NyAxNS43NiwtMTQuMjMwNDcgbCAyOS42NywwLjAxMTcyIGMgNy43MiwwIDE2LjQxLDYuMDU4NTUgMTYuNDgsMTQuMjE4NzUgbCAwLjAyLDE1Mi4yMTkgYyAwLDI1LjEwMSAyLjM0LDQ0LjAxMSAxNC4zMyw2Ni4zODMgMTcuMTMsMzEuODY3IDQxLjA1LDQ3LjUgNzMuMTMsNDcuNzUgOC4wNCwwLjA1OCAxNS4xLDcuMDc4IDE1LjEsMTUuMDI3IGwgMCwyOC4yNDIgYyAwLDcuMzkxIC02LjQxLDEzLjg3OSAtMTQuNTgsMTQuNzciLz48cGF0aCBpZD0icGF0aDU2IiBzdHlsZT0iZmlsbDojMTAwZjBkO2ZpbGwtb3BhY2l0eToxO2ZpbGwtcnVsZTpub256ZXJvO3N0cm9rZTpub25lIiBkPSJtIDM2MTMuMiwzNDguODIgLTIzLjQzLC0wLjAxMSBjIC03LjM0LDAgLTE2Ljc1LC01LjI3IC0xOS4wMywtMTMgTCAzNDk0Ljc5LDk3LjEwMTYgMzQxNy4yMywzMzUuNTcgYyAtMi4yOSw3LjkxOCAtMTEuNzIsMTMuMjM5IC0xOS4xLDEzLjIzOSBsIC0zMy40NiwwLjAzMSBjIC02LjE0LDAgLTEyLjA4LC0yLjczOCAtMTUuMTIsLTYuOTY5IC0yLjA0LC0yLjgzMiAtMi42LC02LjA0MyAtMS41OSwtOS4wMzkgTCAzNDU0LjExLDE3Ljk0MTQgYyAyLjA0LC02LjIzMDUgNy40NSwtMTMuNTExNzEgMTYuMDEsLTEzLjUxMTcxIGwgNDAuNDksMCBjIDcuNDMsMCAxMy41Miw1LjA1ODU5IDE2LjMxLDEzLjUzOTExIEwgMzYyOS44OCwzMzIuNzMgYyAxLjAzLDIuOTg5IDAuNDgsNi4yMTEgLTEuNTUsOS4wNTEgLTMuMDYsNC4yNyAtOC45OSw3LjAzOSAtMTUuMTMsNy4wMzkiLz48cGF0aCBpZD0icGF0aDU4IiBzdHlsZT0iZmlsbDojMTAwZjBkO2ZpbGwtb3BhY2l0eToxO2ZpbGwtcnVsZTpub256ZXJvO3N0cm9rZTpub25lIiBkPSJtIDM2OTAuMTgsNDY5Ljg1OSBjIC0yMS41OCwwIC0zOS4xMywtMTcuNTk3IC0zOS4xMywtMzkuMjUgMCwtMjEuNjQ4IDE3LjU1LC0zOS4yMzggMzkuMTMsLTM5LjIzOCAyMS41OSwwIDM5LjE2LDE3LjU5IDM5LjE2LDM5LjIzOCAwLDIxLjY1MyAtMTcuNTcsMzkuMjUgLTM5LjE2LDM5LjI1Ii8+PHBhdGggaWQ9InBhdGg2MCIgc3R5bGU9ImZpbGw6IzEwMGYwZDtmaWxsLW9wYWNpdHk6MTtmaWxsLXJ1bGU6bm9uemVybztzdHJva2U6bm9uZSIgZD0ibSAzNzA2LjI5LDM1MC43MzggLTMyLjEzLDAuMDMyIGMgLTguNzQsMCAtMTYuNywtNy4wNzEgLTE2LjcsLTE0LjgyMSBMIDM2NTcuMywxNS4zNTk0IGMgMCwtMy44Nzg5IDIsLTcuNzMwNDkgNS40NiwtMTAuNTg5ODcgMy4xNywtMi41OTc2NSA3LjIyLC00LjA5NzY1NSAxMS4yOSwtNC4wOTc2NTUgbCAzMi4zNiwtMC4wNTA3ODEgMC4wMiwwIGMgOC44NywwLjA3ODEyNSAxNi42Niw2Ljk1NzAzNiAxNi42NiwxNC43MTg3MDYgbCAwLDMyMC42MDkyIGMgMCw3Ljg3OSAtNy44NiwxNC43ODkgLTE2LjgsMTQuNzg5Ii8+PHBhdGggaWQ9InBhdGg2MiIgc3R5bGU9ImZpbGw6IzEwMGYwZDtmaWxsLW9wYWNpdHk6MTtmaWxsLXJ1bGU6bm9uemVybztzdHJva2U6bm9uZSIgZD0ibSA0MDA2LjU2LDEzMy4zNCAtMjYuODMsLTAuMTAyIGMgLTcuNDksMCAtMTMuNzcsLTQuNSAtMTYuNTYsLTEyLjMxNiAtOS44LC00Mi4yODE0IC0zMiwtNjQuMTkxNSAtNjUuNjYsLTY1LjE2MDMgLTY1LjU2LDEuOTQ5MiAtNzAuNjUsOTMuMzI4MyAtNzAuNjUsMTIxLjI4OTMgMCw1NS43NTggMTkuMzEsMTE1LjkyOSA3My4yMiwxMTcuNTE5IDMyLjU0LC0xIDU2LjIxLC0yNC4zMzIgNjMuMzEsLTYyLjM1MSAxLjM0LC03Ljc1OCA3LjMsLTEzLjYyOSAxNS40NCwtMTQuNjQ5IGwgMjguNzEsLTAuMjgxIGMgOC41OCwwLjkzIDE1LjMxLDcuNDIyIDE1LjI1LDE1LjQ3MyAtMTAuMTYsNjguNzA3IC01Ny43NywxMTMuMTE3IC0xMjEuNCwxMTMuMTE3IGwgLTIuMiwtMC4wNTkgLTIuNDksMC4wNTkgYyAtOTIuNTQsMCAtMTMzLjk3LC04Ni4zNjcgLTEzMy45NywtMTcxLjk1NyAwLC03OC40NzI4IDM0LjkzLC0xNzAuMTAxNjkgMTMzLjQ1LC0xNzAuMTAxNjkgbCA0LjcyLDAgYyA2Mi4wNCwwIDEwOC44Nyw0My40ODgyOSAxMjIuMjgsMTEzLjk5OTY5IDAuMywzLjM2IC0wLjg2LDYuNzE5IC0zLjI0LDkuNDUgLTMuMDgsMy41MzkgLTcuOTksNS44MDggLTEzLjM4LDYuMDciLz48cGF0aCBpZD0icGF0aDY0IiBzdHlsZT0iZmlsbDojMTAwZjBkO2ZpbGwtb3BhY2l0eToxO2ZpbGwtcnVsZTpub256ZXJvO3N0cm9rZTpub25lIiBkPSJtIDQyNzEuNTQsMjExLjU3IC0xNTAuMDQsMCBjIDMuNDMsNDIuMTQxIDMwLjc3LDg1Ljc4OSA3Ny4xLDg3LjM5MSA0OS4yNiwtMS41NjMgNzEuODIsLTQ0LjE5OSA3Mi45NCwtODcuMzkxIHogbSAtNzMuMDQsMTM1LjEyOSBjIC0xMDEuMzIsMCAtMTQ3LjQ2LC04OS41NyAtMTQ3LjQ2LC0xNzIuNzc3IDAsLTEwMy44NDM5IDU3LjM3LC0xNzAuOTMzNzIgMTQ2LjE1LC0xNzAuOTMzNzIgNjMuNTEsMCAxMTEuOTIsMzIuMDgyMDIgMTMyLjg4LDg4LjE2MDEyIDEuMDksMy4yMzA1IDAuNzMsNi43MzA1IC0xLjAyLDkuODM5NiAtMi4xNiwzLjgyMSAtNi4wOSw2LjYxNCAtMTAuOTQsNy42ODQgbCAtMjguMTIsNS4zNzkgYyAtNi42MiwxLjA3IC0xNS43OCwtMi4zNCAtMTkuMDIsLTkuNzg5IC0xMy43MSwtMzEuMTQwOSAtMzguNjMsLTQ4LjgyMDYgLTY5Ljg0LC00OS43OTMyIC0zMC4wOSwwLjk3MjYgLTU3LjY4LDE4LjgzMiAtNzAuMjgsNDUuNTExNyAtMTAuMzEsMjEuNzgxNSAtMTEuODQsNDMuMjg5NSAtMTIsNjUuMTYwNSBsIDIwMy42MSwwLjAzMSBjIDQuMjgsMCA4LjcsMS44ODcgMTEuODMsNS4wNTggMi42LDIuNjQ5IDQsNS45MTEgMy45NSw5LjE0MSAtMC40Nyw4MC44OTEgLTM3LjQyLDE2Ny4zMjggLTEzOS43NCwxNjcuMzI4Ii8+PHBhdGggaWQ9InBhdGg2NiIgc3R5bGU9ImZpbGw6IzEwMGYwZDtmaWxsLW9wYWNpdHk6MTtmaWxsLXJ1bGU6bm9uemVybztzdHJva2U6bm9uZSIgZD0ibSA0NTkzLjMxLDE4Mi45OCBjIC0xOS4wNywxMy42OTIgLTQxLjk5LDE4LjI1OCAtNjQuODgsMjIuODI5IGwgLTQzLjk3LDguMTUyIGMgLTMxLjUyLDUuMTg3IC00OS43NywxMy42NDggLTQ5Ljc3LDQxLjQ4OCAwLDM3Ljk2MSA0Ny4xMSw0MS4xMzMgNTYuMyw0MS4zNzkgMzEuNjEsLTAuNzk3IDU1LjM2LC0xNC44ODcgNjYuODcsLTM5LjY4IDIuNzYsLTUuODM5IDguODUsLTkuNzU3IDE1LjE3LC05Ljc1NyAxLjA5LDAgMi4xOCwwLjEyMSAzLjI0LDAuMzQ3IGwgMjcuNDIsNi4wNjMgYyA0LjQ4LDAuOTg4IDguNjUsNC4wNyAxMC44OSw4LjA1OCAxLjc4LDMuMTcyIDIuMTcsNi42MjEgMS4xLDkuNzExIC0xNi43Nyw0OC45MSAtNTkuNDEsNzQuNzU4IC0xMjMuOTMsNzQuNzU4IC01OC4yNSwtMC4xMjkgLTEyMC41LC0yNi4wMzkgLTEyMC41LC05OC40MDYgMCwtNDkuNDczIDMxLjA3LC04MC44ODMgOTIuNDIsLTkzLjM3MSBsIDQ5LjI0LC05LjM3OSBjIDI3LjAyLC01LjE3MiA1NC42NSwtMTQuMzcxIDU0LjY1LC00My4zODMgMCwtNDIuOTQ5MiAtNDkuOTgsLTQ3LjMyODEgLTY1LjA5LC00Ny42NDA2IC0zMS40MywwLjY3MTkgLTcxLjY2LDEzLjY1MjQgLTgxLjU5LDQ3LjgzMTYgLTEuODIsNy4wNzkgLTEwLjY3LDEyLjA1MSAtMTguNTgsMTAuNDQyIGwgLTI4LjY1LC01LjkyMiBjIC00LjM0LC0wLjkyMiAtOC4zLC0zLjc1IC0xMC42LC03LjU1MDggLTEuOTEsLTMuMTY3OSAtMi40NiwtNi42Nzk3IC0xLjU2LC05Ljg5MDYgMTQuNzcsLTUzLjEyODkgNjYuMDUsLTg1LjE2Nzk3IDEzNy4xNiwtODUuNzA3MDQgbCAxLjU4LC0wLjAxMTcyIGMgNjMuNTEsMCAxMzEuMzcsMjcuMTkxNDYgMTMxLjM3LDEwMy40NjkxNiAwLDMxLjA3IC0xMy45Niw1OC44MzkgLTM4LjI5LDc2LjE3MSIvPjxwYXRoIGlkPSJwYXRoNjgiIHN0eWxlPSJmaWxsOiMxMDBmMGQ7ZmlsbC1vcGFjaXR5OjE7ZmlsbC1ydWxlOmV2ZW5vZGQ7c3Ryb2tlOm5vbmUiIGQ9Im0gMzI4Ny4xNSw5NjcuOTggMCw3Mi44IGMgMC4wNCwxMS4wNCA4LjQyLDE4LjQ1IDE4LjQ4LDE4LjQ0IGwgMzI2LjE1LDAuMDEgYyAxMC40MSwwIDE4LjgxLC03LjU5IDE4LjgxLC0xOC4zNyBsIDAsLTYyLjQzIGMgLTAuMSwtMTAuNDUgLTguOTMsLTI0LjExNCAtMjQuNTcsLTQ1LjgxMyBMIDM0NTcuMDksNjkxLjQxIGMgNjIuNjgsMS40ODggMTI5LjA0LC03Ljg5OCAxODYsLTM5LjkyMiAxMi44NywtNy4yMTggMTYuMjksLTE3LjkyOSAxNy4zNCwtMjguMzg2IGwgMCwtNzcuNjggYyAwLC0xMC43MTEgLTExLjcyLC0yMy4wOSAtMjQuMDIsLTE2LjY0MSAtMTAwLjM5LDUyLjU5OCAtMjMzLjYyLDU4LjM0IC0zNDQuNjUsLTAuNjA5IC0xMS4zMywtNi4wNTEgLTIzLjIxLDYuMTM3IC0yMy4yMSwxNi44NDggbCAwLDczLjgxMiBjIDAsMTEuNzc3IDAuMjQsMzIuMDA4IDEyLjEzLDUwLjAyNyBsIDE5NS43NSwyODAuNzgyIC0xNzAuNDEsMC4wMzkgYyAtMTAuNDMsMCAtMTguNzcsNy40MjIgLTE4Ljg3LDE4LjMiLz48cGF0aCBpZD0icGF0aDcwIiBzdHlsZT0iZmlsbDojMTAwZjBkO2ZpbGwtb3BhY2l0eToxO2ZpbGwtcnVsZTpldmVub2RkO3N0cm9rZTpub25lIiBkPSJtIDIwOTcuNDUsNTEzLjQ2MSAtOTkuMjUsMCBjIC05LjQzLDAuNjE3IC0xNi45OCw3LjczIC0xNy43MywxNi44MDEgbCAwLjA3LDUwOS4yNzggYyAwLDEwLjE5IDguNTgsMTguMzMgMTkuMTQsMTguMzMgbCA5Mi40MSwwLjA1IGMgOS42OCwtMC41NCAxNy40MiwtNy44NCAxOC4wOCwtMTcuMSBsIDAsLTY2LjU0MyAxLjg0LDAgYyAyNC4wNiw2NC4zMzMgNjkuNDUsOTQuMjkzIDEzMC41Nyw5NC4yOTMgNjIuMDUsMCAxMDAuOTYsLTI5Ljk2IDEyOC43NSwtOTQuMjkzIDI0LjEsNjQuMzMzIDc4LjczLDk0LjI5MyAxMzcuMTMsOTQuMjkzIDQxLjY4LDAgODcuMDEsLTE3LjEyIDExNC44LC01NS42OCAzMS40OSwtNDIuODkgMjUsLTEwNS4wMDcgMjUsLTE1OS42ODcgbCAtMC4wNiwtMzIxLjM5NCBjIDAsLTEwLjE2MSAtOC41NywtMTguMzQ4IC0xOS4xMiwtMTguMzQ4IGwgLTk5LjEsMCBjIC05Ljk4LDAuNjE3IC0xNy44Myw4LjU3OCAtMTcuODMsMTguMzAxIGwgMCwyNzAuMDA4IGMgMCwyMS40MjEgMS44Myw3NS4wMjcgLTIuNzksOTUuMzcxIC03LjQzLDM0LjMyNCAtMjkuNjcsNDMuOTE0IC01OC4zNCw0My45MTQgLTI0LjExLDAgLTQ5LjEzLC0xNi4wNzUgLTU5LjMyLC00MS43MzkgLTEwLjE4LC0yNS43NjEgLTkuMjQsLTY4LjYyNSAtOS4yNCwtOTcuNTQ2IGwgMCwtMjY5Ljk2MSBjIDAsLTEwLjE2MSAtOC41NywtMTguMzQ4IC0xOS4xNCwtMTguMzQ4IGwgLTk5LjEyLDAgYyAtOS45MywwLjYxNyAtMTcuOCw4LjU3OCAtMTcuOCwxOC4zMDEgbCAtMC4xMywyNzAuMDA4IGMgMCw1Ni44MDQgOS4yOSwxNDAuMzU5IC02MS4wOSwxNDAuMzU5IC03MS4zMiwwIC02OC41NCwtODEuNDI2IC02OC41NCwtMTQwLjM1OSBsIC0wLjA2LC0yNjkuOTYxIGMgMC4wNCwtMTAuMTYxIC04LjU0LC0xOC4zNDggLTE5LjEzLC0xOC4zNDgiLz48cGF0aCBpZD0icGF0aDcyIiBzdHlsZT0iZmlsbDojMTAwZjBkO2ZpbGwtb3BhY2l0eToxO2ZpbGwtcnVsZTpldmVub2RkO3N0cm9rZTpub25lIiBkPSJtIDM5MzIuMjksOTY0LjY1NiBjIC03My4yMSwwIC03Ny44MiwtOTkuNjU2IC03Ny44MiwtMTYxLjgzNiAwLC02Mi4xNDQgLTAuOTIsLTE5NS4wMTkgNzYuOTIsLTE5NS4wMTkgNzYuODksMCA4MC41OCwxMDcuMTY4IDgwLjU4LDE3Mi41MzEgMCw0Mi44NTkgLTEuODMsOTQuMjg1IC0xNC44LDEzNS4wMTIgLTExLjE1LDM1LjM3OSAtMzMuMzYsNDkuMzEyIC02NC44OCw0OS4zMTIgeiBtIC0wLjksMTAzLjkxNCBjIDE0Ny4yNiwwIDIyNi45MywtMTI2LjQ0MSAyMjYuOTMsLTI4Ny4xMzIgMCwtMTU1LjQyNiAtODguMDMsLTI3OC42NzYgLTIyNi45MywtMjc4LjY3NiAtMTQ0LjUxLDAgLTIyMy4yNiwxMjYuNDc2IC0yMjMuMjYsMjg0LjAwOCAwLDE1OC42MDEgNzkuNjQsMjgxLjggMjIzLjI2LDI4MS44Ii8+PHBhdGggaWQ9InBhdGg3NCIgc3R5bGU9ImZpbGw6IzEwMGYwZDtmaWxsLW9wYWNpdHk6MTtmaWxsLXJ1bGU6ZXZlbm9kZDtzdHJva2U6bm9uZSIgZD0ibSA0MzQ5LjMyLDUxMy40NjEgLTk4Ljg3LDAgYyAtOS45NiwwLjYxNyAtMTcuODEsOC41NzggLTE3LjgxLDE4LjMwMSBsIC0wLjE0LDUwOS41MDggYyAwLjgyLDkuMjggOS4wNiwxNi42IDE5LjAyLDE2LjYgbCA5Mi4wNywwLjA1IGMgOC42OCwtMC40OCAxNS44LC02LjM4IDE3LjYyLC0xNC4yNyBsIDAsLTc3LjkyNyAxLjg4LDAgYyAyNy43NSw2OS42NjcgNjYuNjgsMTAyLjg0NyAxMzUuMTksMTAyLjg0NyA0NC40NywwIDg4LjAzLC0xNi4wMyAxMTUuOCwtNTkuOTggQyA0NjQwLDk2Ny44ODMgNDY0MCw4OTkuMzE2IDQ2NDAsODUwLjAxMiBsIDAsLTMyMC40OTIgYyAtMS4xMSwtOS4wMzIgLTkuMTYsLTE2LjA1OSAtMTguOTYsLTE2LjA1OSBsIC05OS41MiwwIGMgLTkuMTgsMC41OTggLTE2LjU2LDcuMzc5IC0xNy42NywxNi4wNTkgbCAwLDI3Ni41MzUgYyAwLDU1LjcyMiA2LjUsMTM3LjE4NyAtNjIuMDcsMTM3LjE4NyAtMjQuMDcsMCAtNDYuMjcsLTE2LjExMyAtNTcuNCwtNDAuNzMgLTEzLjkxLC0zMS4wNjcgLTE1Ljc1LC02Mi4xNDEgLTE1Ljc1LC05Ni40NTcgbCAwLC0yNzQuMjQ2IGMgLTAuMTcsLTEwLjE2MSAtOC43NSwtMTguMzQ4IC0xOS4zMSwtMTguMzQ4Ii8+PHBhdGggaWQ9InBhdGg3NiIgc3R5bGU9ImZpbGw6IzEwMGYwZDtmaWxsLW9wYWNpdHk6MTtmaWxsLXJ1bGU6ZXZlbm9kZDtzdHJva2U6bm9uZSIgZD0ibSAzMTI3LjE5LDUxNC43NSBjIC02LjU4LC01Ljg3MSAtMTYsLTYuMjYyIC0yMy40MiwtMi4zMDkgLTMyLjk1LDI3LjM5MSAtMzguODcsNDAuMDkgLTU2Ljg4LDY2LjE0MSAtNTQuNDcsLTU1LjQ4IC05My4wNCwtNzIuMTIxIC0xNjMuNTcsLTcyLjEyMSAtODMuNTcsMCAtMTQ4LjUzLDUxLjU1OSAtMTQ4LjUzLDE1NC42NiAwLDgwLjUyNyA0My42MSwxMzUuMzA1IDEwNS44LDE2Mi4xNzIgNTMuODQsMjMuNjMzIDEyOS4wNCwyNy45MzcgMTg2LjU4LDM0LjQwMiBsIDAsMTIuODcxIGMgMCwyMy42MTQgMS44NSw1MS41NTEgLTEyLjA5LDcxLjk0NiAtMTIuMDMsMTguMjU4IC0zNS4yNCwyNS43NTggLTU1LjY5LDI1Ljc1OCAtMzcuODUsMCAtNzEuNDgsLTE5LjQwMyAtNzkuNzYsLTU5LjU5OCAtMS42OCwtOC45MjYgLTguMjQsLTE3Ljc5MyAtMTcuMjMsLTE4LjIyMyBsIC05Ni4xNSwxMC40MTggYyAtOC4xNCwxLjgyOCAtMTcuMTUsOC4zMjEgLTE0LjgsMjAuNzE1IDIyLjEsMTE2LjY5OCAxMjcuNDYsMTUxLjk1OCAyMjEuODksMTUxLjk1OCA0OC4yNCwwIDExMS4zOSwtMTIuODggMTQ5LjQ1LC00OS4zOSA0OC4yNSwtNDUuMTI3IDQzLjYsLTEwNS4yNjMgNDMuNiwtMTcwLjc4MyBsIDAsLTE1NC41ODYgYyAwLC00Ni41IDE5LjMzLC02Ni45MSAzNy41LC05MS45NzIgNi4yOSwtOS4wMzkgNy43MSwtMTkuNzUgLTAuMzcsLTI2LjM3OSAtMjAuMjYsLTE2Ljk4MSAtNTYuMjcsLTQ4LjIzMSAtNzYuMDYsLTY1Ljg5OSBsIC0wLjI3LDAuMjE5IHogbSAtMTAwLjAyLDI0MS45NjEgYyAwLC0zOC42NzIgMC45MiwtNzAuOTIyIC0xOC41OCwtMTA1LjI2MiAtMTUuNzgsLTI3Ljk0OSAtNDAuODYsLTQ1LjExNyAtNjguNzEsLTQ1LjExNyAtMzguMDIsMCAtNjAuMjksMjguOTg4IC02MC4yOSw3MS45NjkgMCw4NC40OTIgNzUuODIsOTkuODc1IDE0Ny41OCw5OS44NzUgbCAwLC0yMS40NjUiLz48cGF0aCBpZD0icGF0aDc4IiBzdHlsZT0iZmlsbDojMTAwZjBkO2ZpbGwtb3BhY2l0eToxO2ZpbGwtcnVsZTpldmVub2RkO3N0cm9rZTpub25lIiBkPSJtIDE4MjYuNDUsNTE0Ljc1IGMgLTYuNTYsLTUuODcxIC0xNi4wNSwtNi4yNjIgLTIzLjQ3LC0yLjMwOSAtMzIuOTUsMjcuMzkxIC0zOC44NSw0MC4wOSAtNTYuODgsNjYuMTQxIC01NC40NCwtNTUuNDggLTkzLjAzLC03Mi4xMjEgLTE2My42LC03Mi4xMjEgLTgzLjU0LDAgLTE0OC41Miw1MS41NTkgLTE0OC41MiwxNTQuNjYgMCw4MC41MjcgNDMuNjUsMTM1LjMwNSAxMDUuODQsMTYyLjE3MiA1My44NSwyMy42MzMgMTI5LjA0LDI3LjkzNyAxODYuNTgsMzQuNDAyIGwgMCwxMi44NzEgYyAwLDIzLjYxNCAxLjg3LDUxLjU1MSAtMTIuMDcsNzEuOTQ2IC0xMi4wNiwxOC4yNTggLTM1LjI5LDI1Ljc1OCAtNTUuNjgsMjUuNzU4IC0zNy44NSwwIC03MS41MiwtMTkuNDAzIC03OS43NywtNTkuNTk4IC0xLjcyLC04LjkyNiAtOC4yNSwtMTcuNzkzIC0xNy4yMywtMTguMjIzIGwgLTk2LjE5LDEwLjQxOCBjIC04LjEyLDEuODI4IC0xNy4xNCw4LjMyMSAtMTQuODEsMjAuNzE1IDIyLjEsMTE2LjY5OCAxMjcuNDcsMTUxLjk1OCAyMjEuODksMTUxLjk1OCA0OC4zLDAgMTExLjQsLTEyLjg4IDE0OS40NywtNDkuMzkgNDguMjcsLTQ1LjEyNyA0My42MSwtMTA1LjI2MyA0My42MSwtMTcwLjc4MyBsIDAsLTE1NC41ODYgYyAwLC00Ni41IDE5LjM0LC02Ni45MSAzNy40NiwtOTEuOTcyIDYuMzIsLTkuMDM5IDcuNzUsLTE5Ljc1IC0wLjMxLC0yNi4zNzkgLTIwLjI4LC0xNi45ODEgLTU2LjMxLC00OC4yMzEgLTc2LjA5LC02NS44OTkgbCAtMC4yMywwLjIxOSB6IE0gMTcyNi40LDc1Ni43MTEgYyAwLC0zOC42NzIgMC45MSwtNzAuOTIyIC0xOC41NSwtMTA1LjI2MiAtMTUuNzcsLTI3Ljk0OSAtNDAuODcsLTQ1LjExNyAtNjguNjgsLTQ1LjExNyAtMzguMSwwIC02MC4zNiwyOC45ODggLTYwLjM2LDcxLjk2OSAwLDg0LjQ5MiA3NS44LDk5Ljg3NSAxNDcuNTksOTkuODc1IGwgMCwtMjEuNDY1Ii8+PC9nPjwvZz48L3N2Zz4=;" vertex="1" parent="1">
          <mxGeometry x="590" y="820" width="180.8" height="67.8" as="geometry" />
        </mxCell>
        <mxCell id="3l8zGak3sCWa_tVM9Evb-15" value="" style="endArrow=classic;html=1;" edge="1" parent="1" source="4ES9V2XQbmjqQQAVPZjq-28" target="4ES9V2XQbmjqQQAVPZjq-16">
          <mxGeometry width="50" height="50" relative="1" as="geometry">
            <mxPoint x="590" y="1610" as="sourcePoint" />
            <mxPoint x="640" y="1560" as="targetPoint" />
            <Array as="points">
              <mxPoint x="510" y="1400" />
              <mxPoint x="510" y="1450" />
            </Array>
          </mxGeometry>
        </mxCell>
        <mxCell id="3l8zGak3sCWa_tVM9Evb-16" value="" style="endArrow=classic;html=1;" edge="1" parent="1" source="4ES9V2XQbmjqQQAVPZjq-29" target="4ES9V2XQbmjqQQAVPZjq-16">
          <mxGeometry width="50" height="50" relative="1" as="geometry">
            <mxPoint x="590" y="1610" as="sourcePoint" />
            <mxPoint x="640" y="1560" as="targetPoint" />
            <Array as="points">
              <mxPoint x="510" y="1520" />
              <mxPoint x="510" y="1451" />
            </Array>
          </mxGeometry>
        </mxCell>
        <mxCell id="3l8zGak3sCWa_tVM9Evb-17" value="" style="endArrow=classic;html=1;entryX=0.5;entryY=0;entryDx=0;entryDy=0;" edge="1" parent="1" target="4ES9V2XQbmjqQQAVPZjq-19">
          <mxGeometry width="50" height="50" relative="1" as="geometry">
            <mxPoint x="2" y="1151" as="sourcePoint" />
            <mxPoint x="890" y="1270" as="targetPoint" />
            <Array as="points">
              <mxPoint x="30" y="1151" />
              <mxPoint x="30" y="940" />
            </Array>
          </mxGeometry>
        </mxCell>
        <mxCell id="3l8zGak3sCWa_tVM9Evb-18" value="" style="endArrow=classic;html=1;entryX=0.5;entryY=0;entryDx=0;entryDy=0;exitX=1.01;exitY=0.487;exitDx=0;exitDy=0;exitPerimeter=0;" edge="1" parent="1" source="3l8zGak3sCWa_tVM9Evb-27" target="4ES9V2XQbmjqQQAVPZjq-30">
          <mxGeometry width="50" height="50" relative="1" as="geometry">
            <mxPoint x="10" y="1160" as="sourcePoint" />
            <mxPoint x="380" y="1130" as="targetPoint" />
            <Array as="points">
              <mxPoint x="30" y="1151" />
              <mxPoint x="30" y="1350" />
            </Array>
          </mxGeometry>
        </mxCell>
        <mxCell id="3l8zGak3sCWa_tVM9Evb-24" style="edgeStyle=orthogonalEdgeStyle;rounded=0;orthogonalLoop=1;jettySize=auto;html=1;exitX=0.5;exitY=1;exitDx=0;exitDy=0;" edge="1" parent="1" source="4ES9V2XQbmjqQQAVPZjq-25" target="4ES9V2XQbmjqQQAVPZjq-25">
          <mxGeometry relative="1" as="geometry" />
        </mxCell>
        <mxCell id="3l8zGak3sCWa_tVM9Evb-26" value="" style="endArrow=classic;html=1;dashed=1;entryX=0.5;entryY=0;entryDx=0;entryDy=0;exitX=0;exitY=0.5;exitDx=0;exitDy=0;" edge="1" parent="1" source="g6cdSrCcOUmQ4DHS_6iD-34" target="3l8zGak3sCWa_tVM9Evb-27">
          <mxGeometry width="50" height="50" relative="1" as="geometry">
            <mxPoint x="563" y="707.5" as="sourcePoint" />
            <mxPoint x="418" y="707.5" as="targetPoint" />
            <Array as="points">
              <mxPoint x="-64" y="698" />
            </Array>
          </mxGeometry>
        </mxCell>
      </root>
    </mxGraphModel>
  </diagram>
</mxfile>
